<svg data-v-0dd9719b="" version="1.0" xmlns="http://www.w3.org/2000/svg" xmlns:xlink="http://www.w3.org/1999/xlink" width="100%" height="100%" viewBox="0 0 340.000000 250.000000" preserveAspectRatio="xMidYMid meet" color-interpolation-filters="sRGB" style="margin: auto;"> <rect data-v-0dd9719b="" x="0" y="0" width="100%" height="100%" fill="#fff" fill-opacity="1" class="background"></rect> <rect data-v-0dd9719b="" x="0" y="0" width="100%" height="100%" fill="url(#watermark)" fill-opacity="1" class="watermarklayer"></rect> <g data-v-0dd9719b="" fill="#333" class="icon-text-wrapper icon-svg-group iconsvg" transform="translate(48.154998779296875,94.99790000915527)"><g class="iconsvg-imagesvg" transform="translate(0,0)"><g><rect fill="#333" fill-opacity="0" stroke-width="2" x="0" y="0" width="60" height="60.004200294020585" class="image-rect"></rect> <svg x="0" y="0" width="60" height="60.004200294020585" filtersec="colorsb346562943" class="image-svg-svg primary" style="overflow: visible;"><svg xmlns="http://www.w3.org/2000/svg" viewBox="-0.00006154923903523013 -0.005992615595459938 86.43006896972656 86.4360122680664"><title>资源 6</title><path d="M38.59 37.11z" fill="#ee7300"></path><path d="M47.84 37.13l13.31-30A5.06 5.06 0 0 0 58.58.44a5 5 0 0 0-2-.44 5.06 5.06 0 0 0-4.68 3l-8.68 19.58L47.85 33a5.09 5.09 0 0 1-.01 4.13z" fill="#1d2088"></path><path d="M25.28 7.12l13.3 30a5.09 5.09 0 0 1 0-4.1l4.63-10.43L34.53 3a5.06 5.06 0 1 0-9.25 4.11z" fill="#6bb92d"></path><path d="M38.58 37.11A5.06 5.06 0 0 0 47.85 33l-4.63-10.42L38.59 33a5.09 5.09 0 0 0-.01 4.11z" fill="#00a0e9"></path><path d="M47.85 49.32zM38.59 49.31l-13.31 30A5.07 5.07 0 0 0 27.85 86a5.17 5.17 0 0 0 2 .43 5.05 5.05 0 0 0 4.63-3l8.69-19.56-4.58-10.44a5.05 5.05 0 0 1 0-4.12z" fill="#ee7300"></path><path d="M61.16 79.31l-13.31-30a5 5 0 0 1 0 4.1l-4.63 10.45 8.68 19.56a5.06 5.06 0 0 0 4.63 3 5.13 5.13 0 0 0 2-.43 5.08 5.08 0 0 0 2.63-6.68z" fill="#00a0e9"></path><path d="M47.85 49.33a5.07 5.07 0 1 0-9.26 4.11l4.63 10.43 4.63-10.43a5 5 0 0 0 0-4.11z" fill="#1d2088"></path><path d="M49.32 38.59z" fill="#ee7300"></path><path d="M49.31 47.84l30 13.31A5.08 5.08 0 0 0 86 58.58a5.13 5.13 0 0 0 .43-2 5.06 5.06 0 0 0-3-4.63l-19.57-8.73-10.43 4.63a5.09 5.09 0 0 1-4.12-.01z" fill="#e60012"></path><path d="M79.31 25.28l-30 13.3a5.09 5.09 0 0 1 4.1 0l10.43 4.63 19.56-8.69a5.05 5.05 0 0 0 3-4.63 5.17 5.17 0 0 0-.43-2 5.07 5.07 0 0 0-6.66-2.61z" fill="#6f5da6"></path><path d="M49.33 38.58a5.07 5.07 0 0 0 4.11 9.26l10.43-4.63-10.44-4.62a5.09 5.09 0 0 0-4.1-.01z" fill="#ea68a2"></path><path d="M37.13 38.59l-30-13.31A5.06 5.06 0 1 0 3 34.53l19.57 8.69L33 38.59a5.05 5.05 0 0 1 4.13 0z" fill="#ffdc00"></path><path d="M7.12 61.16l30-13.31a5 5 0 0 1-4.1 0l-10.44-4.63L3 51.9a5.06 5.06 0 0 0-3 4.63 5 5 0 0 0 .44 2 5.06 5.06 0 0 0 6.68 2.63z" fill="#ea68a2"></path><path d="M37.11 47.85A5.06 5.06 0 1 0 33 38.59l-10.42 4.63L33 47.85a5 5 0 0 0 4.11 0z" fill="#f39800"></path></svg></svg> <!----></g></g> <g transform="translate(67,20.627099990844727)"><g data-gra="path-name" fill-rule="" class="tp-name iconsvg-namesvg"><g transform="scale(1)"><g><path d="M1.73-18.23L1.73 0 8.72 0C14.18 0 17.67-2.07 17.67-9.11 17.67-16.7 14.18-18.23 8.72-18.23ZM6.96-4.46L6.96-13.87 8.4-13.87C11.35-13.87 12.24-12.92 12.24-9.11 12.24-5.46 11.45-4.46 8.4-4.46ZM20.75 0L25.97 0 25.97-18.23 20.75-18.23ZM28.99 0L44.2 0 44.2-4.49 35.53-4.49 35.53-4.65 43.41-13.89 43.41-18.23 29.47-18.23 29.47-13.74 36.82-13.74 36.82-13.58 28.99-4.44ZM46.96 0L52.18 0 52.18-18.23 46.96-18.23ZM75.08-18.23L61.19-18.23 61.19-13.66 65.52-13.66 65.52 0 70.72 0 70.72-13.66 75.08-13.66ZM93.49 0L88.61-6.67C90.81-7.48 91.79-9.19 91.79-12.13 91.79-16.47 89.37-18.23 84.72-18.23L77.32-18.23 77.32 0 82.54 0 82.54-6.12 83.57-6.12 87.32 0ZM82.54-14.23L83.8-14.23C85.93-14.23 86.64-13.81 86.64-12.13 86.64-10.43 85.93-9.85 83.8-9.85L82.54-9.85ZM108.12 0L113.69 0 107.04-18.23 99.98-18.23 93.28 0 98.75 0 100.03-3.83 106.86-3.83ZM101.42-8.04L103.31-13.74 103.63-13.74 105.49-8.04ZM115.29-18.23L115.29 0 122.28 0C127.74 0 131.23-2.07 131.23-9.11 131.23-16.7 127.74-18.23 122.28-18.23ZM120.52-4.46L120.52-13.87 121.96-13.87C124.9-13.87 125.8-12.92 125.8-9.11 125.8-5.46 125.01-4.46 121.96-4.46ZM134.3 0L139.53 0 139.53-18.23 134.3-18.23ZM143 0L148.14 0 148.14-12.19 148.3-12.19 152.63 0 159.91 0 159.91-18.23 154.81-18.23 154.81-6.8 154.66-6.8 150.88-18.23 143-18.23ZM172.2 0.26C174.43 0.26 177.03-0.16 178.42-0.58L178.42-11.11 170.94-11.11 170.94-6.75 173.62-6.75 173.62-4.1C173.22-4.07 173.17-4.07 172.46-4.07 169.21-4.07 168.68-5.3 168.68-9.11 168.68-12.76 169.65-14.08 172.7-14.08 174.09-14.08 175.77-13.84 177.24-13.34L177.24-17.88C176.17-18.23 174.01-18.49 172.25-18.49 166.5-18.49 162.9-16.15 162.9-9.11 162.9-1.47 166.34 0.26 172.2 0.26Z" transform="translate(-1.7300000190734863, 18.489999771118164)"></path></g> <!----> <!----> <!----> <!----> <!----> <!----> <!----></g></g> <!----></g></g><defs v-gra="od"></defs></svg>